<svg width="234" height="66" viewBox="0 0 234 66" fill="none" xmlns="http://www.w3.org/2000/svg">
<path d="M0 16.2062H7.19684V59.1623C7.19684 60.0995 27.348 59.5528 37.4235 59.1623V65.4105H0V16.2062Z" fill="white"/>
<path d="M75.6696 0H77.7258V12.1058V20.8923H71.9684V23.0401L70.529 22.2591H69.7065L77.7258 65.4105H46.471L54.4903 18.5492L55.7241 11.5201V9.76276V8.00546L56.3409 7.41969H57.5747V6.63867H56.3409L55.1072 4.88138V3.51459L54.4903 3.12408V2.34306L55.3128 1.95255L55.7241 0.585765H56.3409L56.7522 0.195255H57.9859L59.8366 4.88138L59.6309 5.07663V6.05291C59.6309 6.05291 58.3972 6.44342 58.3972 7.22444C58.3972 8.00546 59.6309 7.8102 59.6309 7.8102V8.00546H72.3796V13.8631H76.9033V12.1058H75.6696V0Z" fill="white"/>
<path d="M128.515 34.1696V42.1751L133.039 40.4178H138.59L138.796 41.0036V65.4105H145.376V47.447C145.376 47.447 147.844 40.4178 154.012 40.4178C160.181 40.4178 161.456 46.9784 161.62 47.447C161.785 47.9156 161.689 59.6179 161.62 65.4105H167.583V47.447C167.583 47.447 168.817 40.4178 175.808 40.4178C181.772 40.4178 183.417 47.0565 183.417 47.0565V65.4105H190.408V46.666C190.408 46.666 188.146 34.1696 177.865 33.7791C167.583 33.3886 165.116 38.0747 165.116 38.0747C165.116 38.0747 161.209 33.3886 155.657 33.1934C150.105 32.9981 145.376 37.8795 145.376 37.8795V33.7791L128.515 34.1696Z" fill="white"/>
<path fill-rule="evenodd" clip-rule="evenodd" d="M216.933 32.9981C224.926 32.7851 234 38.8558 234 43.7371V65.4105H227.009V62.0911C227.009 62.0911 224.13 65.9962 216.933 65.9962C207.269 65.9962 200.51 59.3172 200.072 50.3758C199.612 40.9986 207.051 33.2615 216.933 32.9981ZM227.009 48.228C226.421 43.2375 222.074 39.4415 216.933 39.832C211.793 40.2226 207.269 43.9324 207.269 49.5948C207.269 55.2572 210.764 58.967 216.522 58.967C224.155 58.967 227.423 51.7426 227.009 48.228Z" fill="white"/>
<path fill-rule="evenodd" clip-rule="evenodd" d="M108.775 32.8029C117.206 32.4059 126.664 38.4653 126.664 44.3229V65.4105H119.879V61.7006C119.879 61.7006 117.206 65.801 108.364 65.9962C99.522 66.1915 92.1195 58.7718 91.7083 50.3758C91.297 41.9799 98.9559 33.2652 108.775 32.8029ZM109.186 59.1623C115.153 59.2968 120.064 54.0627 119.467 48.4233C118.927 43.3197 114.587 39.5278 109.186 39.6368C103.505 39.7515 99.0892 44.3982 99.3163 49.7901C99.5342 54.9621 103.737 59.0395 109.186 59.1623Z" fill="white"/>
</svg>
